<?xml version="1.0" encoding="UTF-8" standalone="no"?>
        <svg 
    viewBox="17.87109375 -71.8505859375 436.962890625 50.4638671875"
    width="419.091796875"
    height="122.314453125"
   xmlns="http://www.w3.org/2000/svg"
   xmlns:svg="http://www.w3.org/2000/svg">
   <path d="M21.97-7.62L21.97-7.62Q26.51-8.50 46.00-8.64L46.00-8.64L70.75-9.23L71.04-29.59L71.04-49.51L54.93-49.51Q41.31-49.51 36.91-50.54Q32.52-51.56 32.52-54.20L32.52-54.20Q32.52-54.49 32.52-54.79L32.52-54.79Q32.52-54.93 32.52-55.08L32.52-55.08Q32.52-58.59 36.25-59.62Q39.99-60.64 53.61-60.64L53.61-60.64L71.34-61.23L71.34-64.60Q71.34-66.21 71.48-71.04Q71.63-75.88 71.63-81.74L71.63-81.74L72.07-95.21L49.22-94.63Q36.33-94.19 31.20-94.19L31.20-94.19Q30.47-94.19 27.98-94.26Q25.49-94.34 24.61-95.65L24.61-95.65Q23.14-96.97 23.00-98.14Q22.85-99.32 22.85-99.61L22.85-99.61Q22.85-101.22 23.88-102.83L23.88-102.83Q24.46-104.15 31.71-104.66Q38.96-105.18 54.93-105.47L54.93-105.47Q62.11-105.47 66.87-105.76Q71.63-106.05 72.07-106.05L72.07-106.05Q72.36-106.20 79.61-106.35Q86.87-106.49 97.41-106.49L97.41-106.49Q114.11-106.49 118.73-106.27Q123.34-106.05 123.78-104.74L123.78-104.74Q124.66-103.86 124.80-103.13Q124.95-102.39 124.95-101.95L124.95-101.95Q124.95-101.37 124.80-100.93L124.80-100.93Q124.66-98.14 120.70-97.19Q116.75-96.24 102.25-95.95L102.25-95.95L83.20-95.65L82.62-61.23L98.00-60.64Q110.60-60.64 114.18-59.69Q117.77-58.74 117.77-55.52L117.77-55.52Q117.77-55.37 117.77-55.08L117.77-55.08Q117.77-54.93 117.77-54.64L117.77-54.64Q117.77-51.71 114.11-50.68Q110.45-49.66 102.98-49.66L102.98-49.66Q100.05-49.66 96.68-49.80L96.68-49.80L81.59-50.10L81.59-9.23L103.27-9.52Q116.89-9.52 121.80-9.23Q126.71-8.94 128.32-7.91L128.32-7.91Q131.25-6.59 131.69-5.13Q132.13-3.66 132.13-3.08L132.13-3.08Q132.13-1.32 130.66 0.29L130.66 0.29Q130.37 1.03 123.49 1.39Q116.60 1.76 104.15 1.76L104.15 1.76Q95.80 1.76 84.23 1.61L84.23 1.61Q65.04 1.61 49.88 1.83Q34.72 2.05 30.47 2.34L30.47 2.34Q27.83 2.49 25.78 2.49L25.78 2.49Q21.97 2.49 20.00 1.61Q18.02 0.73 18.02-2.49L18.02-2.49Q18.02-2.78 18.02-2.93L18.02-2.93Q17.87-3.37 17.87-3.81L17.87-3.81Q17.87-6.74 21.97-7.62ZM168.16-3.08L168.16-3.08Q168.90-5.71 171.53-6.52Q174.17-7.32 182.08-7.32L182.08-7.32Q185.74-7.32 191.53-7.47Q197.31-7.62 202.15-7.91L202.15-7.91L213.72-8.35L213.72-56.40Q213.43-76.90 213.43-90.89Q213.43-104.88 213.72-106.20L213.72-106.20Q213.72-106.79 214.23-107.45Q214.75-108.11 215.33-108.11L215.33-108.11Q216.80-108.54 217.97-108.54L217.97-108.54Q221.34-108.54 222.80-104.37Q224.27-100.20 224.27-83.50L224.27-83.50L224.27-71.92L245.36-71.63Q256.49-71.34 261.99-70.97Q267.48-70.61 268.51-70.02L268.51-70.02Q270.41-68.99 270.56-67.75Q270.70-66.50 270.70-66.21L270.70-66.21Q270.70-64.45 269.38-62.70L269.38-62.70Q269.09-61.38 264.99-61.08Q260.89-60.79 246.09-60.64L246.09-60.64L224.27-60.35L224.27-35.60Q224.27-25.05 224.41-17.65Q224.56-10.25 224.85-9.38L224.85-9.38Q225-8.64 230.93-8.35Q236.87-8.06 251.95-8.06L251.95-8.06Q260.16-8.20 265.58-8.20L265.58-8.20Q272.46-8.20 275.90-7.91Q279.35-7.62 280.22-6.01L280.22-6.01Q282.13-3.81 282.13-2.05L282.13-2.05Q282.13-1.46 281.54-0.07Q280.96 1.32 276.71 2.20L276.71 2.20Q274.66 2.64 259.06 2.93Q243.46 3.22 221.92 3.22L221.92 3.22Q186.77 3.22 177.83 2.93Q168.90 2.64 168.90 1.61L168.90 1.61Q167.87 0.59 167.80 0Q167.72-0.59 167.72-0.73L167.72-0.73Q167.72-1.61 168.16-3.08ZM351.12-49.95L351.12-49.95Q351.42-52.29 354.27-52.81Q357.13-53.32 372.51-53.32L372.51-53.32Q379.83-53.32 384.89-53.47Q389.94-53.61 390.38-53.91L390.38-53.91L390.38-55.08Q390.38-55.81 390.09-56.84L390.09-56.84L389.65-59.47L379.54-59.47Q372.95-59.47 370.75-59.84Q368.55-60.21 367.68-61.23L367.68-61.23Q366.36-62.84 366.36-64.45L366.36-64.45Q366.36-65.04 366.80-66.43Q367.24-67.82 369.58-68.99L369.58-68.99Q370.61-69.43 373.90-69.73Q377.20-70.02 380.86-70.02L380.86-70.02Q387.30-70.02 388.62-70.24Q389.94-70.46 389.94-71.78L389.94-71.78Q389.94-71.92 389.94-72.07L389.94-72.07Q389.94-73.10 390.16-74.19Q390.38-75.29 390.38-76.03L390.38-76.03Q390.67-76.32 390.67-76.46L390.67-76.46Q390.67-77.20 388.40-77.42Q386.13-77.64 377.20-77.64L377.20-77.64Q371.19-77.64 366.80-77.93Q362.40-78.22 361.38-78.37L361.38-78.37Q360.64-78.96 360.13-80.42Q359.62-81.88 359.03-84.52L359.03-84.52Q358.74-86.57 358.52-88.40Q358.30-90.23 358.01-91.11L358.01-91.11Q357.71-94.19 357.71-100.71Q357.71-107.23 358.30-108.98L358.30-108.98Q358.30-110.01 360.64-110.45Q362.99-110.89 369.87-111.18L369.87-111.18Q374.85-111.18 385.55-111.25Q396.24-111.33 407.23-111.33L407.23-111.33Q416.89-111.47 422.90-111.47L422.90-111.47Q427.29-111.47 431.10-111.33Q434.91-111.18 435.50-110.01L435.50-110.01Q436.82-109.57 436.89-107.59Q436.96-105.62 436.96-104.00L436.96-104.00Q436.96-100.78 436.82-94.78L436.82-94.78Q436.52-88.92 436.16-84.59Q435.79-80.27 435.21-79.69L435.21-79.69Q434.77-78.96 430.66-78.66Q426.56-78.37 417.63-78.37L417.63-78.37Q410.45-78.37 405.54-78.30Q400.63-78.22 400.20-77.93L400.20-77.93L400.20-74.41L400.63-71.04L410.74-70.75Q419.09-70.46 421.66-69.29Q424.22-68.12 424.22-65.33L424.22-65.33Q424.22-65.19 424.22-65.04L424.22-65.04Q424.22-62.11 420.63-60.79Q417.04-59.47 409.13-59.47L409.13-59.47L400.63-59.47L400.20-56.54L399.61-53.91L408.40-53.61L422.31-53.61Q423.63-53.76 425.24-53.76L425.24-53.76Q426.12-53.76 427.88-53.69Q429.64-53.61 431.54-53.32L431.54-53.32Q433.89-53.17 434.84-52.37Q435.79-51.56 436.23-49.95L436.23-49.95Q436.82-48.34 436.82-47.17L436.82-47.17Q436.82-45.12 434.69-43.73Q432.57-42.33 424.66-42.33L424.66-42.33L417.63-42.33L417.33-39.40Q417.04-38.09 416.67-36.47Q416.31-34.86 416.02-33.54L416.02-33.54L415.43-30.91L424.37-30.91Q431.25-30.91 433.37-30.25Q435.50-29.59 435.50-27.39L435.50-27.39Q435.50-27.10 435.50-26.81L435.50-26.81Q435.50-26.51 435.50-26.37L435.50-26.37Q435.50-23.58 431.84-22.56Q428.17-21.53 416.02-21.53L416.02-21.53L400.63-21.53L400.63-14.94L411.77-14.94Q420.26-14.94 423.12-14.06Q425.98-13.18 425.98-11.13L425.98-11.13Q425.98-10.84 425.98-10.69L425.98-10.69Q425.98-10.11 425.61-9.30Q425.24-8.50 424.37-7.76L424.37-7.76Q423.93-7.03 421.14-6.74Q418.36-6.45 411.77-6.45L411.77-6.45L400.49-6.45L400.49 0.88Q400.49 7.03 399.61 8.86Q398.73 10.69 396.09 10.69L396.09 10.69Q395.80 10.69 395.36 10.69L395.36 10.69Q392.72 10.69 391.33 8.35Q389.94 6.01 389.36 0.15L389.36 0.15L388.77-6.45L376.17-6.45Q366.36-6.45 361.74-7.62Q357.13-8.79 356.98-11.43L356.98-11.43Q356.69-12.16 356.69-12.74L356.69-12.74Q356.69-14.50 359.55-15.23Q362.40-15.97 374.27-15.97L374.27-15.97L389.65-15.97L389.65-18.60L389.94-21.53L373.24-21.53Q365.92-21.53 360.79-21.75Q355.66-21.97 354.79-22.56L354.79-22.56Q352.88-23.73 352.88-26.07L352.88-26.07Q352.88-26.22 352.95-27.54Q353.03-28.86 355.08-30.47L355.08-30.47Q356.10-31.20 358.74-31.64Q361.38-32.08 366.94-32.08L366.94-32.08L376.76-32.08L376.76-42.33L365.33-42.33Q357.71-42.33 355.44-42.70Q353.17-43.07 351.86-44.68L351.86-44.68Q350.54-46.29 350.39-46.80Q350.24-47.31 350.24-47.46L350.24-47.46Q350.24-48.34 351.12-49.95ZM315.53-110.01L315.53-110.01Q316.26-110.60 316.85-111.11Q317.43-111.62 317.87-111.62L317.87-111.62Q320.21-111.33 328.56-108.98Q336.91-106.64 340.58-105.32L340.58-105.32Q345.56-102.98 345.78-101.29Q346.00-99.61 346.00-99.32L346.00-99.32Q346.00-96.53 342.48-94.48L342.48-94.48Q341.75-94.19 340.72-94.19L340.72-94.19Q340.28-94.19 339.26-94.34Q338.23-94.48 335.60-95.51L335.60-95.51Q331.64-96.83 327.69-97.92Q323.73-99.02 320.21-99.76L320.21-99.76Q315.82-100.78 314.94-102.91Q314.06-105.03 314.06-106.05L314.06-106.05Q314.06-108.11 315.53-110.01ZM313.92 1.46L313.92 1.46Q313.92 0.44 316.41-2.20Q318.90-4.83 324.02-9.08L324.02-9.08Q329.74-13.77 332.52-15.75Q335.30-17.72 336.91-17.72L336.91-17.72Q338.96-17.72 340.28-16.19Q341.60-14.65 341.60-12.01L341.60-12.01Q340.58-8.06 331.71-0.95Q322.85 6.15 318.16 7.03L318.16 7.03Q316.26 7.03 315.09 5.42Q313.92 3.81 313.92 1.46ZM314.94-78.66L314.94-78.66Q316.11-79.69 317.14-79.91Q318.16-80.13 319.48-80.13L319.48-80.13Q320.65-80.13 322.41-79.98L322.41-79.98Q327.39-79.25 332.96-77.93Q338.53-76.61 340.87-75.59L340.87-75.59Q342.48-74.41 342.48-71.41Q342.48-68.41 340.87-66.50L340.87-66.50Q340.14-65.48 338.23-65.48L338.23-65.48Q337.79-65.48 336.25-65.63Q334.72-65.77 325.05-68.41L325.05-68.41Q316.11-70.46 314.50-72.14Q312.89-73.83 312.89-75L312.89-75Q312.89-76.61 314.94-78.66ZM387.30-42.33L390.38-32.08L395.36-31.79L399.32-31.79Q400.93-31.79 401.51-31.49L401.51-31.49Q401.81-31.49 402.83-33.11Q403.86-34.72 404.88-37.06L404.88-37.06L407.81-42.33L387.30-42.33ZM424.95-100.34L413.67-100.34L413.67-88.92L424.95-88.92L424.95-100.34ZM369.58-92.43L369.58-92.43L370.31-87.89L379.54-87.89L379.39-94.04L379.10-99.76L374.12-100.05Q372.80-100.20 371.92-100.20L371.92-100.20Q369.87-100.20 369.43-99.54Q368.99-98.88 368.99-97.41L368.99-97.41Q368.99-95.65 369.58-92.43ZM391.70-100.34L391.70-87.89L396.68-88.18Q398.88-88.18 400.20-88.55Q401.51-88.92 401.51-89.06L401.51-89.06Q401.51-89.21 401.51-89.21L401.51-89.21Q401.51-89.50 401.37-91.19Q401.22-92.87 401.22-95.07L401.22-95.07L401.22-100.34L391.70-100.34Z"/>
    </svg>
        