<svg width="272" height="272" version="1.1" xmlns="http://www.w3.org/2000/svg" xmlns:xlink="http://www.w3.org/1999/xlink"><path d="M238.27 177.28L238.27 177.28Q238.27 181.91 235.82 183.54L235.82 183.54Q229.57 183.54 211.07 181.09L211.07 181.09Q196.66 179.46 174.62 179.46L174.62 179.46Q133.82 179.46 73.71 187.08L73.71 187.08Q70.72 187.62 48.96 192.52L48.96 192.52Q41.62 194.42 35.90 194.96L35.90 194.96Q27.20 195.78 19.04 190.34L19.04 190.34Q14.96 187.62 11.97 183.54L11.97 183.54L12.51 180.28Q13.06 178.92 14.42 178.64L14.42 178.64Q15.50 178.37 40.80 177.83L40.80 177.83Q43.25 177.83 44.88 177.56L44.88 177.56Q76.16 175.92 107.71 172.12L107.71 172.12L107.71 35.84Q107.71 26.32 101.46 14.08L101.46 14.08Q100.64 12.45 99.82 11.36L99.82 11.36Q99.55 0.76 114.51 6.20L114.51 6.20Q126.21 10.55 131.10 16.80L131.10 16.80Q131.65 17.35 131.92 17.62L131.92 17.62Q133.55 20.34 130.56 26.60L130.56 26.60Q129.74 28.50 129.47 29.59L129.47 29.59Q127.57 39.38 126.21 70.39L126.21 70.39Q125.94 76.37 125.39 80.72L125.39 80.72Q141.44 79.91 159.12 74.20L159.12 74.20L170.54 70.12Q175.17 69.03 183.33 70.39L183.33 70.39Q190.13 71.75 192.30 73.92L192.30 73.92Q194.21 76.37 193.66 78.82L193.66 78.82L193.12 79.91Q190.40 83.44 151.50 90.52L151.50 90.52Q144.43 91.88 135.46 91.33L135.46 91.33Q129.74 91.06 125.39 89.97L125.39 89.97L123.22 158.24Q122.40 170.21 122.40 170.48L122.40 170.48L130.29 170.48L193.12 163.68L209.98 160.42L211.34 160.42Q218.96 160.42 232.56 171.84L232.56 171.84Q236.37 174.84 238.27 177.28Z" stroke="#000" fill="black" /></svg>