<svg width="272" height="272" version="1.1" xmlns="http://www.w3.org/2000/svg" xmlns:xlink="http://www.w3.org/1999/xlink"><path d="M230.66 116.14L230.66 116.14Q230.66 118.32 228.48 119.68L228.48 119.68L186.86 119.68Q176.53 120.22 169.46 121.86L169.46 121.86Q172.72 124.30 173.26 127.84L173.26 127.84Q173.26 129.20 161.02 145.52L161.02 145.52L159.39 147.42Q172.72 147.15 175.98 148.24L175.98 148.24Q179.79 149.33 182.78 152.59L182.78 152.59Q182.78 153.68 180.06 155.86L180.06 155.86L146.88 159.94L146.06 160.75L153.14 165.10Q154.22 165.92 154.50 167.28L154.50 167.28Q154.50 170.82 152.32 180.06L152.32 180.06Q157.22 180.06 177.89 175.71L177.89 175.71Q199.65 171.36 209.98 178.70L209.98 178.70Q212.70 180.34 214.88 183.06L214.88 183.06L215.15 186.05L212.98 187.68L165.92 189.04L151.78 190.40L150.42 232.56Q149.33 243.98 146.06 252.14L146.06 252.14Q144.70 253.50 143.07 253.50L143.07 253.50Q137.90 246.43 137.90 204.82L137.90 204.82Q137.90 195.02 137.63 191.49L137.63 191.49Q122.94 192.30 103.90 196.38L103.90 196.38Q93.30 198.83 90.03 199.10L90.03 199.10Q85.14 199.38 80.78 196.38L80.78 196.38Q77.79 194.21 76.98 190.94L76.98 190.94Q78.61 189.86 125.39 184.14L125.39 184.14Q134.37 183.06 137.36 182.51L137.36 182.51Q137.36 178.16 133.55 162.66L133.55 162.66L113.97 164.83Q109.34 164.83 106.08 163.20L106.08 163.20L102.82 160.48L101.73 158.85L103.36 157.49Q147.97 150.69 150.14 150.42L150.14 150.42Q155.86 138.99 159.12 122.94L159.12 122.94L158.30 122.13Q134.10 124.03 116.42 128.11L116.42 128.11Q127.84 135.18 128.11 141.98L128.11 141.98Q128.11 147.15 125.12 148.24L125.12 148.24Q118.59 148.24 111.25 130.56L111.25 130.56Q110.70 129.47 110.43 128.93L110.43 128.93Q107.71 128.93 92.75 132.46L92.75 132.46Q76.98 136 69.90 127.57L69.90 127.57Q69.90 125.39 71.26 125.12L71.26 125.12L137.36 117.50L138.18 116.69L137.36 100.91L119.41 101.73L112.88 100.37L108.80 98.19Q107.98 97.38 107.17 96.29L107.17 96.29L110.16 94.66Q119.41 93.84 137.36 91.66L137.36 91.66L135.18 76.98Q134.91 75.89 134.37 75.07L134.37 75.07Q129.20 75.07 111.79 78.61L111.79 78.61L111.25 81.60Q106.08 81.60 103.09 75.62L103.09 75.62L99.01 64.46Q92.21 48.14 86.22 38.62L86.22 38.62Q86.22 34.54 99.55 36.18L99.55 36.18Q103.63 36.72 104.99 36.45L104.99 36.45Q153.68 29.38 175.98 26.66L175.98 26.66L191.49 23.94L192.85 23.94Q201.01 23.94 215.15 38.90L215.15 38.90Q215.15 42.16 208.62 47.06L208.62 47.06Q206.45 48.69 205.63 49.78L205.63 49.78Q204.00 51.68 196.38 64.74L196.38 64.74L191.22 72.35L189.31 74.26L183.60 75.89Q182.51 75.07 180.34 70.18L180.34 70.18Q163.74 70.99 144.43 73.98L144.43 73.98Q150.14 77.52 150.14 87.86L150.14 87.86L168.37 84.59Q176.26 84.32 180.34 88.67L180.34 88.67L179.52 91.66L149.87 97.92L148.24 115.33Q159.39 115.87 185.78 109.62L185.78 109.62Q201.28 105.81 209.98 105.26L209.98 105.26Q217.33 104.72 224.94 110.43L224.94 110.43Q228.21 112.88 230.66 116.14ZM192.58 35.36L192.58 35.36Q187.41 32.10 171.09 34.27L171.09 34.27Q167.01 34.82 164.83 34.82L164.83 34.82L168.64 38.62L157.76 63.65L173.54 61.47Q178.70 61.47 181.70 65.28L181.70 65.28L190.40 44.34Q192.03 39.71 192.58 35.36ZM154.50 36.18L154.50 36.18L130.83 39.17Q137.36 52.77 137.36 67.46L137.36 67.46L149.60 65.55L149.87 65.55Q154.50 53.31 154.50 36.18ZM111.79 71.26L131.38 68.54Q127.02 63.38 125.94 49.23L125.94 49.23Q125.39 42.98 124.58 39.98L124.58 39.98Q115.60 41.62 104.99 44.61L104.99 44.61L111.79 71.26ZM72.90 62.83L72.90 62.83Q71.54 65.55 64.74 65.55L64.74 65.55Q57.94 60.93 46.24 48.96L46.24 48.96Q39.44 41.89 39.98 39.98L39.98 39.98Q39.98 39.17 40.26 38.08L40.26 38.08Q47.87 36.72 60.66 42.16L60.66 42.16Q69.63 45.97 71.54 50.05L71.54 50.05Q72.90 52.77 72.90 62.83ZM54.40 111.52L54.40 111.52Q53.04 114.24 51.41 115.33L51.41 115.33Q43.52 115.33 31.28 103.36L31.28 103.36Q21.22 93.84 20.94 87.86L20.94 87.86Q28.29 85.14 43.79 93.57L43.79 93.57L48.14 96.29Q54.40 100.37 54.40 111.52ZM60.11 134.37L60.11 134.37L43.25 197.20Q39.98 210.26 38.90 221.68L38.90 221.68Q35.90 223.58 30.74 219.50L30.74 219.50Q30.46 219.23 29.65 218.69L29.65 218.69Q22.30 212.43 20.13 198.83L20.13 198.83Q19.86 196.93 19.58 195.30L19.58 195.30L29.38 185.50L56.03 135.73Q57.39 133.01 59.02 133.28L59.02 133.28Q59.57 133.28 60.11 134.37Z" stroke="#000" fill="black" /></svg>