<svg width="272" height="272" version="1.1" xmlns="http://www.w3.org/2000/svg" xmlns:xlink="http://www.w3.org/1999/xlink"><path d="M231.20 150.28L231.20 150.28Q229.84 152.18 225.76 152.18L225.76 152.18Q220.32 152.18 190.13 149.19L190.13 149.19L172.72 148.10Q137.36 148.10 79.42 155.45L79.42 155.45Q63.92 157.35 54.40 160.34L54.40 160.34L42.16 163.88Q33.73 164.97 24.75 157.35L24.75 157.35Q20.94 154.36 19.04 150.82L19.04 150.82Q19.04 147.83 20.67 146.47L20.67 146.47Q36.72 147.29 76.70 142.39L76.70 142.39Q99.01 139.94 112.88 139.94L112.88 139.94L113.97 139.94L114.78 86.09L90.30 87.72Q78.06 87.18 72.35 80.92L72.35 80.92Q72.35 78.20 75.89 77.66L75.89 77.66L88.13 76.84L114.51 73.30L114.51 33.59Q114.51 25.70 109.34 19.72L109.34 19.72Q87.31 21.90 78.88 19.72L78.88 19.72Q70.99 17.82 65.82 12.65L65.82 12.65Q65.82 11.29 68.82 9.38L68.82 9.38Q100.37 7.75 154.22-4.49L154.22-4.49Q158.58-5.58 163.74-5.58L163.74-5.58Q175.71-5.58 181.97 1.77L181.97 1.77Q182.24 4.22 180.88 5.85L180.88 5.85Q180.06 6.66 178.98 7.21L178.98 7.21Q174.62 9.66 139.81 14.82L139.81 14.82Q129.47 16.46 125.39 17.27L125.39 17.27Q132.19 20.81 132.19 28.15L132.19 28.15L130.83 42.84L130.02 69.22L130.02 69.50L154.77 64.33Q168.91 62.70 174.62 70.86L174.62 70.86Q174.08 77.66 138.45 82.01L138.45 82.01Q131.92 82.82 130.29 83.37L130.29 83.37L129.47 84.73L127.84 138.31Q159.39 136.41 180.34 133.42L180.34 133.42L203.73 129.34L204.82 129.34Q211.62 128.79 222.77 138.04L222.77 138.04Q231.20 145.11 231.20 150.28Z" stroke="#000" fill="black" /></svg>