<?xml version="1.0" standalone="no"?>
<!DOCTYPE svg PUBLIC "-//W3C//DTD SVG 1.1//EN" "http://www.w3.org/Graphics/SVG/1.1/DTD/svg11.dtd" >
<svg xmlns="http://www.w3.org/2000/svg" xmlns:svg="http://www.w3.org/2000/svg" xmlns:xlink="http://www.w3.org/1999/xlink" viewBox="0 0 1024 1024"><path d="M355.45 505.71Q335.32 514.17 374.82 488.98Q389.63 474.68 498.99 501.99Q555.14 509.18 598.12 505.29Q626.97 482.25 609.2 496.26V476.96Q605.81 484.93 633.97 473.61L620.84 456.52H544.93Q503 450.21 498.44 464.92Q487.48 443.75 462.99 440.99Q468.72 428.08 456.5 416.79Q436.5 415.54 472.68 384.66Q462.29 403.08 456.44 389.39Q487.26 384.44 501.71 369.59Q510.6 391.7 571.23 368.67Q576.86 379.6 585.55 393.61Q618.96 371.55 623.69 381.41Q615.97 366.03 632.3 383.37Q631.49 366.34 620.02 333.6Q636.69 351.8 625.94 324.31Q634.74 352.24 604.22 318.97Q614.87 314.82 602.37 312.77Q576 311.6 509.62 309.32Q490.38 339.3 460.7 330.46Q445.43 324.97 429.81 312.52Q399.28 335.85 425.56 325.59Q416.42 304.65 420.6 291.18Q392.51 261.58 390.8 250.67Q415.98 254.75 403.84 245.87Q402.18 195.28 407.75 163.09Q400.06 122.17 411.69 109.24Q416.26 102.29 429.44 116.18Q434.26 96.01 472.2 82.96Q496.61 84.3 579.14 100.65Q664.11 106.11 743.32 104.28Q786.64 106.8 821.64 83.7Q853.23 80.17 908.59 79.71Q933.12 117.47 927.96 105.76Q943.88 93.61 936.04 119.24Q948.82 133.61 945.12 146.95Q924.34 149.19 924.86 205.25Q917.26 247.31 948.05 268.24Q938.29 314.67 927.62 330.12Q922.01 329.73 909.41 311.39Q860.73 303.41 789.13 329.76Q772.94 320.8 733.7 333.93Q678.71 313.42 671.79 339.81V353.13L688.61 391.49L764.27 355.4Q831.75 378 839.78 394.28Q861.84 410.96 867.8 394.34Q859.95 423.41 847.71 403.06Q867.21 444.23 831.36 440.49Q805.16 439.02 762.81 454.81H695.23L680.04 483.84L668.01 475.82L759.95 507.84H852.99Q852.38 472.46 854.63 474.48Q856.88 482.86 873.27 478.61Q868.21 487.73 893.17 490.76Q915.67 484.44 940.1 499.65Q911.58 489.53 945.45 522.38Q940.49 508.8 917.85 540.38Q940.89 550.51 922.27 560.58Q890.73 575.25 852.67 571.82H823.09L812.02 573.29Q792.25 578.67 790.12 615.14Q791.57 631.76 793.05 638.37L768.84 631.17H843.69Q901.73 645.28 893.08 652.54Q925.6 646.87 919.68 658.18Q922.98 682.71 919.02 654.19Q925.94 680.29 922.89 691.77Q926.5 708.9 884.51 696.91Q888.61 708.26 782.17 700.36H683.94V758.71H772.14Q808.77 766.85 846.8 747.25Q876.37 766.51 871.13 798.36Q848.1 781.03 868.83 793.5Q858.73 801.04 840.59 782.73Q870.3 804.98 847.28 791.15Q865.59 812.08 826.73 819.04Q788.53 827.67 754.84 799.47H699.8V861.49Q705.25 923.02 686.59 929.99Q681.22 914.01 642.68 929.06Q648.86 916.63 656.78 931.48Q635.3 936.42 630.68 918.24Q595.3 894.4 625.43 867.04L614.8 803.31H539.66Q464.34 829.38 416.98 823.28Q385.22 809.66 397.8 796.35Q394.46 773.56 384.14 752.9Q368.27 740.22 416.8 758.61Q419.64 737.51 513.51 736.05H614.45V736.94L624.75 703.1H487.3Q432.14 695.82 411.57 715.63Q391.61 708.71 386.51 684.16Q372.72 702.42 371.23 675.29Q378.08 694.06 360.36 664.66Q382.31 644.36 362.99 668.49Q384.4 661.37 394.15 648.68Q408.22 646.12 441.25 641.98H518.12V569.51H430.93Q406.45 565.21 391.32 576.03Q370.59 542.59 371.24 550.76Q339.5 557.8 356.9 517.34Q342.42 535.82 326.27 517.47Q346.16 535.48 348.4 534.42ZM89.35 116.07Q98.27 117.68 133.65 109.06Q131.11 84.09 139.2 111.4Q133.92 93.64 191.4 123.95Q258.04 121 267.48 146.43Q325.99 136.66 322.84 148.47Q299.79 166.26 309.13 184.87Q295.58 204.32 292.86 205.29Q302.71 218.89 290.48 218.95Q275.62 220.85 261.48 213.23Q244.79 229.92 240.58 200.15Q203.71 194.93 193.72 179.44Q167.53 185.74 147.58 181.8Q90.2 179.95 104.71 142.98Q113.2 151.44 88.2 116.07Q94.29 103.77 93.12 98.01ZM88.22 856.92Q75.73 868.4 93.13 835.67Q143.78 831.59 152.9 795.64Q193.95 757.78 234.42 742.33Q254.07 724.98 245.94 754.37Q246.97 752.57 260.21 756.92Q283.79 760.45 278.51 769.1Q290.84 792 223.34 858.56Q170.43 905.53 139.79 919.37Q107.28 898.47 102.12 896.34Q110.75 896.52 80.73 867.49ZM83.2 312.33Q110.49 301.47 122.27 307.97Q124.47 308.99 122.26 291.96Q158.86 292.06 133.96 315.02Q173.6 324.21 218.87 321.88Q265.37 338.66 271.72 339.61Q300.41 334.2 280.23 374.55Q278.7 384.23 286.82 405Q273.33 392.6 250 417.7Q254.23 422.69 230.21 418.88Q234.68 403.79 155.06 391.72Q102.52 380.18 115.05 367.47Q77.6 366.56 86.91 352.15Q100.85 332.49 107.73 331.86ZM626.38 640.11L671.25 619.63H692.38Q672.14 623.4 704.57 648.24Q715.04 651.69 685.25 641.79Q715.88 605.35 701.29 594.72L742.3 568.51H584.3ZM771.12 163.82V231.28H844.07V175.45ZM476.55 217.54L492.19 258.07H553.14L561.05 226.99L557.76 156.8L492.75 193.2Q487.89 163.75 477.66 184.58Q476.19 162.34 476.05 186.38Q488.79 176.91 474.39 203.68Q467.6 201.42 460.16 240.46ZM639.57 250.29L660.86 245.53Q679.16 248.2 675.53 241.13Q705.5 246.58 682.35 241.36Q698.66 244.98 713.15 237.62Q695.06 226.43 708.6 216.15Q684.69 219.91 682.61 199.68V176.9H640.83Z" fill="black"></path></svg>