<?xml version="1.0" standalone="no"?>
<!DOCTYPE svg PUBLIC "-//W3C//DTD SVG 1.1//EN" "http://www.w3.org/Graphics/SVG/1.1/DTD/svg11.dtd" >
<svg xmlns="http://www.w3.org/2000/svg" xmlns:svg="http://www.w3.org/2000/svg" xmlns:xlink="http://www.w3.org/1999/xlink" viewBox="0 0 1024 1024"><path d="M146.93 823.03Q183.43 824.75 328.72 816.38L493.24 785.06L481.71 664.81V548.22H388.31Q289.19 525.95 261.28 518.66Q210.27 495.65 218.01 515.57Q209.83 495.3 214.59 507.49Q226.44 479.48 226.99 491.94Q202.64 485.15 235 473.2Q254.64 457.13 359.42 437.14L506.37 441.69V435.7Q497.13 412.53 488.16 381.92Q489.03 367.99 499.34 297.65L504.4 230.57L353.31 214.65Q265.01 225.28 214.29 212.73Q207.9 222.55 194.25 207.24Q154.49 239.17 167.43 227.19Q177.19 217.79 150.93 203.03Q150.29 185.16 137.78 169Q145.92 184.56 143.98 147.69Q171.14 145.92 230.32 152.94Q279.55 129.53 377.44 152.51Q441.67 135.6 439.99 156.04Q488.17 124.02 480.14 147.46Q477.34 129.12 552.19 129.03Q586.01 131.25 647.86 141.78Q759.1 133.51 810.69 154.47Q851.82 148.93 837.77 135.2Q865.1 154.17 858.07 171.42Q854.04 183.37 834.37 167Q849.6 157.67 852.2 176.72Q869.18 198.2 843.47 187.13Q783.3 229.7 694.41 210.65L573.6 214.54L551.94 444.49L663.48 450.04Q739.81 459.3 771.74 460.45Q801.4 469.35 790.86 469.96Q801.49 502.73 796.46 496.25Q819.2 478.06 801.05 506.57Q791.41 501.77 764.86 527.15Q768.12 541.15 722.1 509.71Q680.16 515.94 673.25 528.61L546.61 520.92V816.1L720.15 799.53Q815.79 808.25 826.31 791.94Q882.61 815.88 888.24 823.95Q894.13 815.44 911.6 815.79Q900.97 840.74 908.34 843.1Q896.83 873.76 892.51 878.59Q883.03 877.05 838.22 885.74Q808.88 860.5 695.94 864.73Q648.69 890.86 563.1 884.84Q430.09 878.86 339.74 862.53Q232.66 887.3 224.95 898.8Q172.03 866.89 193.88 899.72Q130.4 891.78 134.66 870Q116.53 881.11 131.1 857.58Q108.73 853.47 108.58 841.37Q104.64 837.24 124.6 847.6Q127.36 823.26 153.25 807.87Z" fill="black"></path></svg>